<svg width="179" height="27" viewBox="0 0 179 27" fill="none" xmlns="http://www.w3.org/2000/svg">
<path d="M8.68 16.3198L15.16 8.1998C16.6267 6.30647 17.36 4.94647 17.36 4.1198C17.36 2.9998 16.8133 2.4398 15.72 2.4398C14.8133 2.4398 13.7467 2.81314 12.52 3.5598C11.32 4.2798 10.2933 5.17314 9.44 6.2398C8 8.02647 7.28 10.0131 7.28 12.1998C7.28 13.8531 7.74667 15.2265 8.68 16.3198ZM-1.67638e-06 26.7998L0.199998 26.5998L4.24 21.9598L7.88 17.2798C6.52 15.9998 5.84 14.3465 5.84 12.3198C5.84 9.94647 6.6 7.7198 8.12 5.6398C9.26667 4.06647 10.64 2.78647 12.24 1.7998C13.8667 0.813136 15.4 0.319802 16.84 0.319802C19.2133 0.319802 20.4 1.74647 20.4 4.5998V5.2798C22.9067 3.49314 24.96 2.5998 26.56 2.5998C28.6133 2.5998 29.64 3.66647 29.64 5.7998C29.64 6.0398 29.6267 6.29314 29.6 6.5598C31.6267 5.1998 33.3333 4.5198 34.72 4.5198C35.6267 4.5198 36.3333 4.77314 36.84 5.2798C37.3733 5.7598 37.64 6.42647 37.64 7.2798C37.64 9.09314 36.7467 11.2265 34.96 13.6798L33.36 15.8798C32.4533 17.1331 31.8533 17.9198 31.56 18.2398C30.6 19.3065 30.12 20.0798 30.12 20.5598C30.12 21.3598 30.48 21.7598 31.2 21.7598C31.2 21.7598 31.3333 21.7331 31.6 21.6798C31.3067 22.7998 30.4667 23.9331 29.08 25.0798C27.72 26.1998 26.4667 26.7598 25.32 26.7598C24.04 26.7598 23.4 25.9865 23.4 24.4398C23.4 22.8931 24.4 20.9465 26.4 18.5998L28.72 15.8798L32.24 11.5998C33.7067 9.8398 34.44 8.5198 34.44 7.6398C34.44 7.2398 34.2933 6.90647 34 6.6398C33.7333 6.34647 33.4 6.1998 33 6.1998C32.36 6.1998 31.52 6.5998 30.48 7.3998C29.4667 8.1998 28.6133 9.1198 27.92 10.1598L26.48 12.3198L20.96 20.4798C20.9333 20.5331 20.84 20.6665 20.68 20.8798C20.3867 21.2798 19.2133 23.1865 17.16 26.5998L17.04 26.7998H10.4L10.6 26.5598L13.16 23.5598L15.28 20.9598C16.2667 19.7331 17.0267 18.7731 17.56 18.0798C17.72 17.8665 17.8267 17.7331 17.88 17.6798L25 8.5198C25.6133 7.7198 25.92 7.0398 25.92 6.4798C25.92 6.02647 25.7467 5.6398 25.4 5.3198C25.08 4.97314 24.6933 4.7998 24.24 4.7998C22.6667 4.7998 20.7733 6.33314 18.56 9.3998L12.36 17.9998C12.6533 18.0798 12.8667 18.1198 13 18.1198C13.72 18.1198 14.6267 17.9065 15.72 17.4798C15.5333 18.4931 14.44 18.9998 12.44 18.9998H11.52L6.08 26.7998H-1.67638e-06ZM42.1069 21.7998L44.8669 18.3198C45.3469 17.7065 45.5869 17.2131 45.5869 16.8398C45.5869 15.9331 45.0669 15.4798 44.0269 15.4798C42.7202 15.4798 41.1602 16.4265 39.3469 18.3198C37.5335 20.2131 36.6269 21.7331 36.6269 22.8798C36.6269 23.7065 37.0935 24.1198 38.0269 24.1198C39.4669 24.1198 40.7602 23.4265 41.9069 22.0398L42.1069 21.7998ZM32.4669 22.3598L30.9469 23.4398L30.5869 22.9998L33.2669 20.7198L34.3469 19.4398C37.0935 16.1865 40.2402 14.5598 43.7869 14.5598C44.8802 14.5598 45.8535 15.0931 46.7069 16.1598L47.9469 14.5198H50.7469L45.6669 21.3998C45.6402 21.4265 45.6135 21.4665 45.5869 21.5198C44.9469 22.3465 44.6269 22.9465 44.6269 23.3198C44.6269 23.8265 44.8802 24.0798 45.3869 24.0798C45.8669 24.0798 46.4402 23.8265 47.1069 23.3198C47.2935 23.1865 47.6002 22.9731 48.0269 22.6798L48.3869 23.1198C47.1602 24.0531 46.2935 24.6798 45.7869 24.9998C43.8402 26.1998 42.3602 26.7998 41.3469 26.7998C40.3602 26.7998 39.8669 26.3865 39.8669 25.5598C39.8669 25.2931 39.9202 24.9865 40.0269 24.6398C40.0802 24.5598 40.1202 24.3998 40.1469 24.1598C37.5335 25.9465 35.4802 26.8398 33.9869 26.8398C32.5735 26.8398 31.8669 26.1331 31.8669 24.7198C31.8669 23.9465 32.0669 23.1598 32.4669 22.3598ZM49.6553 22.1998L48.0953 23.3998L47.7753 22.9598L51.8153 19.5598L57.9753 12.0798L56.2153 11.9198L56.8153 11.1598L58.6153 11.3198L61.2153 8.2398L64.0953 8.3198L61.8953 11.1998L66.6553 11.3198L66.0553 12.1198L61.3353 12.0398L54.6953 20.9198C54.6953 20.8665 54.642 20.9331 54.5353 21.1198C53.842 21.9731 53.4953 22.5731 53.4953 22.9198C53.4953 23.5865 53.962 23.9198 54.8953 23.9198C55.6953 23.9198 56.6553 23.5465 57.7753 22.7998L58.0953 23.2398C56.9753 24.1998 55.9486 24.9331 55.0153 25.4398C53.362 26.3465 51.962 26.7998 50.8153 26.7998C49.4553 26.7998 48.7753 26.1331 48.7753 24.7998C48.7753 23.9465 49.0686 23.0798 49.6553 22.1998ZM59.3819 22.2398L57.8619 23.2798L57.5019 22.7998C60.5419 20.4531 62.5685 18.6798 63.5819 17.4798L65.9419 14.6798L69.1019 14.7598L64.3019 20.9598C63.4219 22.1065 62.9819 22.8398 62.9819 23.1598C62.9819 23.8265 63.3819 24.1598 64.1819 24.1598C65.4085 24.1598 66.6085 23.3865 67.7819 21.8398C67.8085 21.7865 67.8485 21.7331 67.9019 21.6798L73.6619 14.7998L76.8219 14.8798L70.9419 22.4798L70.9019 22.5198C70.6085 22.9465 70.4619 23.2665 70.4619 23.4798C70.4619 23.9331 70.7152 24.1598 71.2219 24.1598C71.6219 24.1598 72.3819 23.7465 73.5019 22.9198L73.8619 23.3998C72.8219 24.3865 71.6085 25.2265 70.2219 25.9198C68.8619 26.6131 67.7419 26.9598 66.8619 26.9598C65.9552 26.9598 65.5019 26.5465 65.5019 25.7198C65.5019 25.5865 65.5285 25.3865 65.5819 25.1198C65.5819 25.0131 65.6085 24.8798 65.6619 24.7198C63.0752 26.1065 61.0885 26.7998 59.7019 26.7998C59.2219 26.7998 58.8085 26.6398 58.4619 26.3198C58.1152 25.9998 57.9419 25.6265 57.9419 25.1998C57.9419 24.4265 58.4219 23.4398 59.3819 22.2398ZM82.2841 15.1198C80.8441 16.8265 77.9507 19.5731 73.6041 23.3598L73.2041 22.9198C76.4307 20.0398 79.1774 17.4665 81.4441 15.1998L81.8041 14.8398C81.6441 14.4931 81.5641 14.0931 81.5641 13.6398C81.5641 12.9998 81.7507 12.4265 82.1241 11.9198C82.4974 11.4131 82.9241 11.1598 83.4041 11.1598C83.8041 11.1598 84.0041 11.4531 84.0041 12.0398C84.0041 12.5198 83.7507 13.1198 83.2441 13.8398C83.6974 14.2931 84.3107 14.5198 85.0841 14.5198H85.4841C86.8174 14.5198 87.4841 15.0398 87.4841 16.0798C87.4841 16.7731 86.9641 17.8265 85.9241 19.2398L85.0441 20.4398L84.0841 21.5598C83.4174 22.3331 83.0841 22.8931 83.0841 23.2398C83.0841 23.7731 83.3374 24.0398 83.8441 24.0398C84.2441 24.0398 84.6841 23.8798 85.1641 23.5598C85.2707 23.4798 85.7107 23.2131 86.4841 22.7598L86.7641 23.1998C84.9774 24.5065 83.6307 25.3731 82.7241 25.7998C81.2841 26.4665 80.0841 26.7998 79.1241 26.7998C78.2441 26.7998 77.8041 26.3465 77.8041 25.4398C77.8041 24.8531 78.1107 24.1998 78.7241 23.4798L83.3641 18.1198C83.8441 17.5865 84.0841 17.1331 84.0841 16.7598C84.0841 16.2531 83.8707 15.9198 83.4441 15.7598L82.8841 15.5598C82.6174 15.4798 82.4174 15.3331 82.2841 15.1198ZM98.0037 19.5998C98.4304 19.6265 98.8571 19.6398 99.2837 19.6398C100.724 19.6398 102.017 19.3331 103.164 18.7198C104.337 18.0798 104.924 17.3731 104.924 16.5998C104.924 15.9331 104.564 15.5998 103.844 15.5998C102.99 15.5998 101.99 15.9998 100.844 16.7998C99.6971 17.5731 98.7504 18.5065 98.0037 19.5998ZM104.924 23.1198C103.804 24.0798 102.724 24.8265 101.684 25.3598C99.7904 26.3198 97.6304 26.7998 95.2037 26.7998C92.5371 26.7998 91.2037 25.9598 91.2037 24.2798C91.2037 23.7465 91.3637 23.1598 91.6837 22.5198L90.2437 23.5598L89.8437 23.0798L92.4437 20.8798C92.4437 20.8798 92.4704 20.8531 92.5237 20.7998C94.0171 19.0131 95.4437 17.6798 96.8037 16.7998C97.7637 16.1865 98.5504 15.7465 99.1637 15.4798C100.684 14.8398 102.204 14.5198 103.724 14.5198C104.577 14.5198 105.31 14.7198 105.924 15.1198C106.537 15.5198 106.844 15.9998 106.844 16.5598C106.844 17.7065 106.15 18.6931 104.764 19.5198C103.377 20.3198 101.71 20.7198 99.7637 20.7198C99.1237 20.7198 98.3237 20.6398 97.3637 20.4798L97.2437 20.6398C96.5237 21.5998 96.1637 22.3065 96.1637 22.7598C96.1637 23.9331 97.0304 24.5198 98.7637 24.5198C100.817 24.5198 102.764 23.9065 104.604 22.6798L104.924 23.1198Z" fill="white"/>
<path d="M117.337 13.7598C117.844 13.8665 118.324 13.9198 118.777 13.9198C121.844 13.9198 124.724 13.0398 127.417 11.2798C128.91 10.2931 130.137 9.1198 131.097 7.7598C132.057 6.3998 132.537 5.1598 132.537 4.0398C132.537 3.45314 132.35 2.97314 131.977 2.5998C131.63 2.22647 131.177 2.0398 130.617 2.0398C129.31 2.0398 127.684 2.78647 125.737 4.2798C124.884 4.94647 124.017 5.69314 123.137 6.5198C120.737 8.8398 118.804 11.2531 117.337 13.7598ZM112.177 13.9598C111.404 13.5065 110.737 13.0398 110.177 12.5598C108.31 11.0131 107.377 9.21314 107.377 7.1598C107.377 5.26647 108.23 3.73314 109.937 2.5598C110.764 1.9998 111.577 1.7198 112.377 1.7198C113.31 1.7198 114.19 2.13314 115.017 2.9598C113.87 3.25314 112.924 3.89314 112.177 4.8798C111.43 5.86647 111.057 6.97314 111.057 8.1998C111.057 10.0665 111.817 11.3865 113.337 12.1598L113.617 11.7998C117.084 7.34647 120.657 4.09314 124.337 2.0398C126.764 0.679804 128.897 -0.00019598 130.737 -0.00019598C133.11 -0.00019598 134.297 1.06647 134.297 3.1998C134.297 4.7198 133.724 6.3598 132.577 8.1198C131.43 9.8798 129.99 11.3465 128.257 12.5198C125.457 14.4131 122.31 15.3598 118.817 15.3598C118.284 15.3598 117.59 15.3065 116.737 15.1998C116.23 16.2131 115.977 17.4131 115.977 18.7998C115.977 19.4931 116.23 20.0931 116.737 20.5998C117.27 21.1065 117.91 21.3598 118.657 21.3598C119.59 21.3598 120.417 21.0531 121.137 20.4398C121.884 19.7998 122.257 19.0931 122.257 18.3198C122.257 18.1331 122.244 17.9598 122.217 17.7998C122.27 17.7998 122.35 17.7865 122.457 17.7598C122.537 17.7598 122.604 17.7598 122.657 17.7598C123.99 17.7598 124.657 18.4931 124.657 19.9598C124.63 21.7198 123.67 23.3065 121.777 24.7198C119.91 26.1331 117.817 26.8398 115.497 26.8398C113.79 26.8398 112.47 26.3598 111.537 25.3998C110.604 24.4131 110.137 23.0398 110.137 21.2798C110.137 19.3065 110.497 17.5598 111.217 16.0398L112.017 14.3598L112.177 13.9598ZM136.755 21.7998L139.515 18.3198C139.995 17.7065 140.235 17.2131 140.235 16.8398C140.235 15.9331 139.715 15.4798 138.675 15.4798C137.369 15.4798 135.809 16.4265 133.995 18.3198C132.182 20.2131 131.275 21.7331 131.275 22.8798C131.275 23.7065 131.742 24.1198 132.675 24.1198C134.115 24.1198 135.409 23.4265 136.555 22.0398L136.755 21.7998ZM127.115 22.3598L125.595 23.4398L125.235 22.9998L127.915 20.7198L128.995 19.4398C131.742 16.1865 134.889 14.5598 138.435 14.5598C139.529 14.5598 140.502 15.0931 141.355 16.1598L142.595 14.5198H145.395L140.315 21.3998C140.289 21.4265 140.262 21.4665 140.235 21.5198C139.595 22.3465 139.275 22.9465 139.275 23.3198C139.275 23.8265 139.529 24.0798 140.035 24.0798C140.515 24.0798 141.089 23.8265 141.755 23.3198C141.942 23.1865 142.249 22.9731 142.675 22.6798L143.035 23.1198C141.809 24.0531 140.942 24.6798 140.435 24.9998C138.489 26.1998 137.009 26.7998 135.995 26.7998C135.009 26.7998 134.515 26.3865 134.515 25.5598C134.515 25.2931 134.569 24.9865 134.675 24.6398C134.729 24.5598 134.769 24.3998 134.795 24.1598C132.182 25.9465 130.129 26.8398 128.635 26.8398C127.222 26.8398 126.515 26.1331 126.515 24.7198C126.515 23.9465 126.715 23.1598 127.115 22.3598ZM141.344 26.7998L145.784 21.1998L142.784 23.4398L142.384 22.9598L144.584 21.1598C144.797 20.9998 145.09 20.7598 145.464 20.4398C145.864 20.0931 146.157 19.8398 146.344 19.6798C147.464 18.7465 148.397 17.8131 149.144 16.8798L151.024 14.4798H154.144L153.464 15.5998C154.237 15.2798 155.13 15.0131 156.144 14.7998C157.184 14.5865 157.984 14.4798 158.544 14.4798C159.77 14.4798 160.384 15.1465 160.384 16.4798V16.5998C162.437 15.1598 164.37 14.4398 166.184 14.4398C167.41 14.4398 168.024 15.0531 168.024 16.2798C168.024 17.3465 167.064 18.9731 165.144 21.1598C164.344 22.0665 163.944 22.7465 163.944 23.1998C163.944 23.6265 164.184 23.8398 164.664 23.8398C165.144 23.8398 165.944 23.4798 167.064 22.7598L167.424 23.2398C164.25 25.5598 161.89 26.7198 160.344 26.7198C159.384 26.7198 158.904 26.3598 158.904 25.6398C158.904 25.0265 159.237 24.2398 159.904 23.2798C161.237 21.3331 162.504 19.6665 163.704 18.2798C164.21 17.6931 164.464 17.1998 164.464 16.7998C164.464 16.2398 164.144 15.9598 163.504 15.9598C162.704 15.9598 161.597 16.3465 160.184 17.1198L153.624 26.7998H149.104L155.344 18.7198C155.344 18.6931 155.397 18.5998 155.504 18.4398C155.637 18.2531 155.81 18.0131 156.024 17.7198C156.264 17.3998 156.384 17.1198 156.384 16.8798C156.384 16.2398 156.037 15.9198 155.344 15.9198C154.224 15.9198 153.104 16.3865 151.984 17.3198L145.064 26.7998H141.344ZM170.758 22.4798C170.731 22.5598 170.718 22.6398 170.718 22.7198C170.691 23.2798 170.998 23.5598 171.638 23.5598C172.758 23.5598 173.838 22.8398 174.878 21.3998C175.758 20.1998 176.198 18.9465 176.198 17.6398C176.198 17.2931 176.144 16.8398 176.038 16.2798C175.424 16.8665 173.931 18.1065 171.558 19.9998L169.598 21.4798L167.158 23.3598L166.838 22.9198L171.278 19.5998L173.478 17.8798C174.464 17.1065 175.224 16.3998 175.758 15.7598V15.4398C175.731 15.2798 175.718 15.1198 175.718 14.9598C175.718 14.3731 175.878 13.7865 176.198 13.1998C176.651 12.3731 177.118 11.9598 177.598 11.9598C178.024 11.9598 178.238 12.2131 178.238 12.7198C178.238 13.4931 177.758 14.4265 176.798 15.5198L176.878 15.7598C177.358 17.1998 177.598 18.5598 177.598 19.8398C177.598 21.4131 177.264 22.7465 176.598 23.8398C176.838 23.7065 177.344 23.3598 178.118 22.7998L178.438 23.2398L176.998 24.3598C174.918 25.9865 172.704 26.7998 170.358 26.7998C168.438 26.7998 167.478 26.2131 167.478 25.0398C167.478 24.1598 167.984 23.4131 168.998 22.7998C169.478 22.5065 169.944 22.3598 170.398 22.3598C170.478 22.3598 170.598 22.3998 170.758 22.4798Z" fill="#9E3DE8"/>
</svg>
